HIERARCHY
ROOT Hips
{
	OFFSET -3.958830 18.904000 13.208200
	CHANNELS 6 Xposition Yposition Zposition Zrotation Yrotation Xrotation 
	JOINT LHipJoint
	{
		OFFSET 0.000000 0.000000 0.000000
		CHANNELS 3 Zrotation Yrotation Xrotation
		JOINT LeftUpLeg
		{
			OFFSET 1.800000 -1.400000 0.085000
			CHANNELS 3 Zrotation Yrotation Xrotation
			JOINT LeftLeg
			{
				OFFSET 2.215000 -6.000000 0.000000
				CHANNELS 3 Zrotation Yrotation Xrotation
				JOINT LeftFoot
				{
					OFFSET 2.500000 -6.900000 0.000000
					CHANNELS 3 Zrotation Yrotation Xrotation
					JOINT LeftToeBase
					{
						OFFSET 0.200000 -0.500000 1.950000
						CHANNELS 3 Zrotation Yrotation Xrotation
						End Site
						{
							OFFSET 0.000000 0.000000 0.000000
						}
					}
				}
			}
		}
	}
	JOINT RHipJoint
	{
		OFFSET 0.000000 0.000000 0.000000
		CHANNELS 3 Zrotation Yrotation Xrotation
		JOINT RightUpLeg
		{
			OFFSET -1.800000 -1.400000 0.085000
			CHANNELS 3 Zrotation Yrotation Xrotation
			JOINT RightLeg
			{
				OFFSET -2.215000 -6.000000 0.000000
				CHANNELS 3 Zrotation Yrotation Xrotation
				JOINT RightFoot
				{
					OFFSET -2.500000 -6.900000 0.000000
					CHANNELS 3 Zrotation Yrotation Xrotation
					JOINT RightToeBase
					{
						OFFSET -0.200000 -0.500000 1.950000
						CHANNELS 3 Zrotation Yrotation Xrotation
						End Site
						{
							OFFSET 0.000000 0.000000 0.000000
						}
					}
				}
			}
		}
	}
	JOINT LowerBack
	{
		OFFSET 0.000000 0.000000 0.000000
		CHANNELS 3 Zrotation Yrotation Xrotation
		JOINT Spine
		{
			OFFSET -0.087000 1.940000 -0.288900
			CHANNELS 3 Zrotation Yrotation Xrotation
			JOINT Spine1
			{
				OFFSET 0.000000 1.950000 0.060000
				CHANNELS 3 Zrotation Yrotation Xrotation
				JOINT Neck
				{
					OFFSET 0.000000 0.000000 0.000000
					CHANNELS 3 Zrotation Yrotation Xrotation
					JOINT Neck1
					{
						OFFSET 0.000000 1.600000 0.340000
						CHANNELS 3 Zrotation Yrotation Xrotation
						JOINT Head
						{
							OFFSET 0.000000 1.667000 -0.240000
							CHANNELS 3 Zrotation Yrotation Xrotation
							End Site
							{
								OFFSET 0.000000 0.000000 0.000000
							}
						}
					}
				}
				JOINT LeftShoulder
				{
					OFFSET 0.000000 0.000000 0.000000
					CHANNELS 3 Zrotation Yrotation Xrotation
					JOINT LeftArm
					{
						OFFSET 2.700000 1.550000 -0.730000
						CHANNELS 3 Zrotation Yrotation Xrotation
						JOINT LeftForeArm
						{
							OFFSET 5.450000 0.000000 0.000000
							CHANNELS 3 Zrotation Yrotation Xrotation
							JOINT LeftHand
							{
								OFFSET 3.450000 0.000000 0.000000
								CHANNELS 3 Zrotation Yrotation Xrotation
								JOINT LeftHandIndex1
								{
									OFFSET 0.750000 0.000000 0.000000
									CHANNELS 3 Zrotation Yrotation Xrotation
									End Site
									{
										OFFSET 0.000000 0.000000 0.000000
									}
								}
							}
						}
					}
				}
				JOINT RightShoulder
				{
					OFFSET 0.000000 0.000000 0.000000
					CHANNELS 3 Zrotation Yrotation Xrotation
					JOINT RightArm
					{
						OFFSET -2.700000 1.550000 -0.730000
						CHANNELS 3 Zrotation Yrotation Xrotation
						JOINT RightForeArm
						{
							OFFSET -5.450000 0.000000 0.000000
							CHANNELS 3 Zrotation Yrotation Xrotation
							JOINT RightHand
							{
								OFFSET -3.450000 0.000000 0.000000
								CHANNELS 3 Zrotation Yrotation Xrotation
								JOINT RightHandIndex1
								{
									OFFSET -0.750000 0.000000 0.000000
									CHANNELS 3 Zrotation Yrotation Xrotation
									End Site
									{
										OFFSET 0.000000 0.000000 0.000000
									}
								}
							}
						}
					}
				}
			}
		}
	}
}
MOTION
Frames: 8
Frame Time: 0.016667
-0.728620 17.125650 -2.288400 -1.364628 -3.807054 -22.085884 -15.144043 13.423284 3.384359 2.907221 -6.957263 -21.566792 8.835455 6.304142 64.965759 0.613580 11.056805 0.604145 0.021810 -0.082710 -0.272680 18.332408 -9.830819 3.710405 4.711661 10.142460 -20.592904 0.600797 -12.727400 66.617481 -2.337617 -10.249699 0.734340 -0.266970 0.526490 0.761980 -3.642203 -2.840609 -8.368877 2.832834 -6.068257 62.422341 -9.386871 0.543467 9.196192 3.949554 -1.540144 -22.491666 -18.377554 8.390383 60.531725 7.071060 -1.180040 -30.477710 17.240292 -43.928753 -10.733525 13.090145 -25.163524 -11.807563 7.842965 -24.050408 -2.191246 -3.903259 3.175543 1.253210 -0.083100 0.652810 0.199700 -25.498278 50.233730 4.277566 -12.526720 12.743303 -24.653834 -25.456464 40.428179 -5.585397 1.889426 -1.396202 -0.137410 0.501660 0.554150 0.151250 
-0.733220 17.068410 -2.293560 -1.118633 -3.593556 -22.486808 -15.141377 13.402023 3.394793 2.505193 -7.025175 -21.290180 8.809842 6.441548 65.457546 0.666359 11.085787 0.596533 0.059200 -0.040810 -0.221420 18.338914 -9.836669 3.697589 4.372106 10.228489 -20.511696 0.603229 -12.871208 67.305044 -2.407891 -10.333240 0.709323 -0.267710 0.454370 0.752820 -3.660003 -2.794146 -8.376358 2.320534 -5.797642 64.309767 -9.375353 0.659144 7.314116 4.120567 -1.276416 -22.340071 -17.637260 8.064335 60.445529 7.229950 -0.377190 -33.045910 17.178111 -43.560528 -10.574734 15.083988 -25.866991 -11.959083 6.626592 -23.271718 -1.664428 -3.799998 3.153529 1.298810 -0.142080 0.710570 0.206520 -25.589039 49.939161 4.031887 -13.040325 12.377606 -24.610752 -25.114578 40.377499 -5.261485 1.905575 -1.387671 -0.122510 0.481600 0.502990 0.134390 
-0.741210 16.897160 -2.290850 -0.873944 -3.880674 -23.018921 -15.226886 13.437855 3.496687 2.565387 -7.563743 -21.483234 8.198496 7.237048 67.557448 0.781283 11.502633 0.486543 0.118560 -0.059300 -0.098410 18.282078 -9.645478 3.649873 4.726589 10.244676 -20.479356 -0.475980 -12.694967 69.295743 -2.518797 -10.559472 0.610333 -0.283160 0.351080 0.764960 -3.463716 -3.275267 -8.431292 0.437303 -4.805818 66.604901 -8.079133 0.895994 5.586456 4.978910 -1.709234 -22.477661 -18.397147 7.946118 58.115340 5.575840 -0.023550 -35.424280 18.478492 -42.537244 -10.635942 16.794311 -24.860007 -12.105895 7.065512 -21.162202 -1.658321 -3.714110 3.168387 1.375510 -0.225800 0.758970 0.204440 -28.114604 49.895794 2.365702 -15.127976 11.455500 -25.256327 -24.809778 40.254704 -4.676875 1.956182 -1.469543 -0.124350 0.425180 0.439080 0.077520 
-0.730040 16.718890 -2.249010 -1.164524 -4.623684 -22.385304 -15.280926 13.251068 3.638904 2.744879 -8.225956 -23.365264 8.465069 7.724017 70.906657 0.924970 12.091564 0.328176 0.093080 -0.125550 -0.076540 18.283297 -9.430710 3.713804 5.514484 10.757890 -21.644103 -1.678589 -12.560766 72.080307 -2.610503 -10.929139 0.507849 -0.317800 0.328700 0.736400 -3.385318 -3.369840 -8.579288 1.069762 -4.719470 66.722025 -8.105424 1.632988 3.737324 5.574004 -1.667797 -22.476964 -17.100607 6.615423 57.723919 5.104510 -0.647040 -35.217390 17.687278 -42.150508 -8.883793 18.782471 -24.651629 -11.949770 7.602859 -20.132747 -1.563043 -3.691251 3.050636 1.402430 -0.253710 0.744720 0.191360 -28.027158 49.604588 0.892752 -16.113579 12.403332 -23.936872 -24.135931 38.423329 -4.104660 2.077219 -1.395269 -0.156570 0.412750 0.432680 0.049300 
-0.712570 16.591500 -2.196390 -1.006768 -7.317845 -22.601680 -15.365951 13.183932 3.702935 3.964780 -8.172841 -24.344500 7.436979 9.668071 74.301184 1.182515 12.684975 0.174342 0.213670 0.113210 -0.064520 18.240646 -9.203957 3.765491 6.615203 11.334303 -21.668320 -3.117862 -11.943360 74.912871 -2.722461 -11.300901 0.486181 -0.195810 0.291640 0.656450 -3.175425 -3.646434 -8.688066 0.996171 -2.942622 65.275573 -7.040243 3.153611 5.560947 5.403625 -1.793331 -22.005421 -15.173816 5.490015 56.928362 5.216790 -0.887010 -33.771220 17.635031 -41.780200 -6.924409 20.253686 -22.218045 -11.554162 7.679987 -18.928489 -1.233338 -3.570864 3.028531 1.296830 -0.253560 0.754270 0.285900 -27.443400 49.323411 -1.149217 -18.127072 13.497101 -21.994280 -22.372234 35.616631 -3.548145 2.266750 -1.450381 -0.106690 0.418570 0.278780 0.114330 
-0.685280 16.506720 -2.101770 -1.521803 -10.483763 -21.913022 -15.452141 12.944950 3.804148 6.883639 -8.060290 -25.867592 4.812374 13.012121 77.111683 1.379955 13.584396 -0.021711 0.214270 0.216350 -0.183030 18.216343 -8.893123 3.878696 7.292759 12.305975 -22.869261 -3.006631 -12.689595 77.703630 -2.835867 -11.886776 0.432010 -0.095570 0.467710 0.628180 -3.007241 -3.755886 -8.864923 2.083324 -1.788443 61.545129 -6.043898 4.283646 9.215732 4.644797 -1.270047 -20.611830 -11.290445 3.730352 54.788606 5.174650 -1.418190 -30.895660 16.899445 -41.400996 -4.889963 19.623916 -20.413991 -10.672070 9.330541 -17.918537 -1.482229 -3.710958 2.888662 1.173340 -0.115120 0.686440 0.401780 -25.610604 48.112422 -1.620723 -18.377909 15.063005 -20.961922 -24.562081 34.630903 -4.758955 2.354120 -1.424737 -0.140830 0.553810 0.262690 0.205560 
-0.650750 16.488310 -1.967660 -1.346124 -13.480954 -21.197350 -15.508209 12.696548 3.937710 9.265356 -7.611618 -26.682913 1.762302 16.843256 78.561427 1.650170 14.367814 -0.217526 0.202720 0.231770 -0.213530 18.194237 -8.693767 3.936270 6.077776 13.286697 -23.933525 -1.547367 -14.257916 79.636310 -2.913796 -12.392125 0.327427 -0.097950 0.500840 0.633340 -2.899967 -3.684536 -9.054149 3.468799 -0.929016 57.427347 -5.891914 5.186740 11.936340 5.012028 -0.633118 -21.298021 -8.905412 3.339346 57.233900 3.887990 -1.775960 -26.192340 14.795773 -41.255847 -1.227000 15.946012 -18.454714 -9.202538 12.130519 -16.078591 -1.948219 -3.797951 2.846029 1.056660 -0.055270 0.646490 0.420860 -24.122460 47.223426 -2.078318 -15.847534 16.745075 -20.255971 -26.180863 35.932334 -6.058805 2.440449 -1.450708 -0.093840 0.528510 0.250450 0.247070 
-0.590830 16.524270 -1.811490 -1.431778 -16.458035 -21.093609 -15.502361 12.423903 4.016791 11.925309 -6.766587 -25.940301 -1.791643 20.764367 78.355191 1.759157 15.100864 -0.404219 0.188130 0.242910 -0.243700 18.207618 -8.668109 3.937677 3.443386 14.006776 -24.230225 1.415324 -16.969054 80.379694 -2.971746 -12.941634 0.187492 -0.032950 0.584160 0.618840 -2.946549 -3.279040 -9.148006 6.678201 -1.123100 53.436284 -6.356048 5.268790 16.175205 5.838701 -1.562299 -20.203478 -8.297071 3.406275 55.905627 0.219110 -2.057990 -23.914830 11.895601 -39.892787 3.925803 12.851856 -16.380988 -8.120380 14.500316 -16.518276 -2.469911 -3.898255 2.775469 0.960010 0.039760 0.561090 0.420100 -22.758146 45.749508 -3.605998 -12.868681 19.924288 -19.781216 -29.497258 36.508070 -8.397831 2.484517 -1.412105 -0.126340 0.597670 0.294090 0.258340 
